<svg id="Layer_1" data-name="Layer 1" xmlns="http://www.w3.org/2000/svg" viewBox="0 0 108.65 152.52"><defs><style>.cls-1{fill:#42210b;}.cls-1,.cls-2,.cls-3{stroke:#000;stroke-miterlimit:10;}.cls-2{fill:#534741;}.cls-3{fill:#BFA26B;}</style></defs><path class="cls-1" d="M306.64,232.55H213.27a7.07,7.07,0,0,1-6.76-9.32l13-38.08,40.43-.29h0l40.24-.29,13.19,38.66A7.06,7.06,0,0,1,306.64,232.55Z" transform="translate(-205.62 -80.53)"/><path class="cls-2" d="M299.93,184.46l-33.25.24-6.84.05h0l-6.83.05-33.45.24L253.1,85.86a7.11,7.11,0,0,1,13.47,0Z" transform="translate(-205.62 -80.53)"/><path class="cls-3" d="M266.58,88.66v96l-6.83.05h0l-6.84.05V88.66a7.15,7.15,0,0,1,6.85-7.43,6.58,6.58,0,0,1,4.84,2.17A7.76,7.76,0,0,1,266.58,88.66Z" transform="translate(-205.62 -80.53)"/></svg>